# xmcd CD database file generated by OrangeCD 6.4
#
# Track frame offsets:
#	225
#	19204
#	41573
#	56327
#	70435
#	98047
#	108873
#	131892
#	144608
#	155236
#	166890
#	179040
#
# Disc length: 2633 seconds
#
# Revision: 3
# Processed by: cddbd v1.5.2PL0 Copyright (c) Steve Scherf et al.
# Submitted via: OrangeCD 6.4
#
DISCID=af0a460c
DTITLE=Chuck Berry and Jerry Lee Lewis - The Best Of
DYEAR=1998
DGENRE=Rock and Roll
TTITLE0=Chuck Berry - Hoochie Coochie Man
TTITLE1=Chuck Berry - Johnny Be Good
TTITLE2=Chuck Berry - Maybellene
TTITLE3=Chuck Berry - Nadine (Is It You)
TTITLE4=Chuck Berry - Reelin' And Rockin'
TTITLE5=Chuck Berry - Rock 'n Roll Music
TTITLE6=Chuck Berry - The Wee Wee Hours
TTITLE7=Chuck Berry - Too Much Monkey Business
TTITLE8=Jerry Lee Lewis - Brown Eyed Handsome Man
TTITLE9=Jerry Lee Lewis - Chantilly Lace
TTITLE10=Jerry Lee Lewis - Great Balls Of Fire
TTITLE11=Jerry Lee Lewis - Whole Lotta Shakin' Goin' on
EXTD=
EXTT0=
EXTT1=
EXTT2=
EXTT3=
EXTT4=
EXTT5=
EXTT6=
EXTT7=
EXTT8=
EXTT9=
EXTT10=
EXTT11=
PLAYORDER=
